<svg viewBox="0 0 1200 800" xmlns="http://www.w3.org/2000/svg">
  <defs>
    <linearGradient id="bgGrad" x1="0%" y1="0%" x2="100%" y2="100%">
      <stop offset="0%" style="stop-color:#f8f9fa;stop-opacity:1" />
      <stop offset="100%" style="stop-color:#e9ecef;stop-opacity:1" />
    </linearGradient>
    <linearGradient id="cardGrad" x1="0%" y1="0%" x2="100%" y2="100%">
      <stop offset="0%" style="stop-color:#ffffff;stop-opacity:1" />
      <stop offset="100%" style="stop-color:#f8f9fa;stop-opacity:1" />
    </linearGradient>
  </defs>

  <!-- Background -->
  <rect width="1200" height="800" fill="url(#bgGrad)"/>

  <!-- Header -->
  <rect x="0" y="0" width="1200" height="80" fill="#ffffff" stroke="#dee2e6" stroke-width="1"/>
  <text x="50" y="30" style="font-size: 24px; font-weight: bold; fill: #495057;">🍽️ FoodShare</text>
  <text x="50" y="55" style="font-size: 14px; fill: #6c757d;">Enterprise Food Donation Platform</text>

  <!-- Navigation -->
  <rect x="300" y="20" width="80" height="40" rx="20" fill="#007bff"/>
  <text x="340" y="42" text-anchor="middle" style="font-size: 12px; fill: white; font-weight: bold;">Dashboard</text>

  <rect x="400" y="20" width="80" height="40" rx="20" fill="#6c757d"/>
  <text x="440" y="42" text-anchor="middle" style="font-size: 12px; fill: white;">Donations</text>

  <rect x="500" y="20" width="80" height="40" rx="20" fill="#6c757d"/>
  <text x="540" y="42" text-anchor="middle" style="font-size: 12px; fill: white;">Requests</text>

  <!-- Main Content -->
  <text x="50" y="120" style="font-size: 20px; font-weight: bold; fill: #495057;">Restaurant Dashboard</text>
  <text x="50" y="145" style="font-size: 14px; fill: #6c757d;">Manage your food donations and track impact</text>

  <!-- Stats Cards -->
  <rect x="50" y="170" width="250" height="120" rx="10" fill="url(#cardGrad)" stroke="#dee2e6" stroke-width="1"/>
  <text x="70" y="200" style="font-size: 16px; font-weight: bold; fill: #495057;">Total Donations</text>
  <text x="70" y="225" style="font-size: 32px; font-weight: bold; fill: #28a745;">247</text>
  <text x="70" y="250" style="font-size: 12px; fill: #6c757d;">+12% from last month</text>

  <rect x="320" y="170" width="250" height="120" rx="10" fill="url(#cardGrad)" stroke="#dee2e6" stroke-width="1"/>
  <text x="340" y="200" style="font-size: 16px; font-weight: bold; fill: #495057;">Meals Saved</text>
  <text x="340" y="225" style="font-size: 32px; font-weight: bold; fill: #007bff;">1,847</text>
  <text x="340" y="250" style="font-size: 12px; fill: #6c757d;">+8% from last month</text>

  <rect x="590" y="170" width="250" height="120" rx="10" fill="url(#cardGrad)" stroke="#dee2e6" stroke-width="1"/>
  <text x="610" y="200" style="font-size: 16px; font-weight: bold; fill: #495057;">Active Partners</text>
  <text x="610" y="225" style="font-size: 32px; font-weight: bold; fill: #ffc107;">23</text>
  <text x="610" y="250" style="font-size: 12px; fill: #6c757d;">Food banks & shelters</text>

  <!-- Recent Donations Table -->
  <rect x="50" y="320" width="790" height="400" rx="10" fill="url(#cardGrad)" stroke="#dee2e6" stroke-width="1"/>
  <text x="70" y="350" style="font-size: 18px; font-weight: bold; fill: #495057;">Recent Donations</text>

  <!-- Table Header -->
  <rect x="70" y="365" width="750" height="30" fill="#f8f9fa" stroke="#dee2e6" stroke-width="1"/>
  <text x="90" y="385" style="font-size: 12px; font-weight: bold; fill: #495057;">Food Item</text>
  <text x="300" y="385" style="font-size: 12px; font-weight: bold; fill: #495057;">Quantity</text>
  <text x="450" y="385" style="font-size: 12px; font-weight: bold; fill: #495057;">Expires</text>
  <text x="550" y="385" style="font-size: 12px; font-weight: bold; fill: #495057;">Status</text>
  <text x="680" y="385" style="font-size: 12px; font-weight: bold; fill: #495057;">Recipient</text>

  <!-- Table Rows -->
  <rect x="70" y="395" width="750" height="30" fill="#ffffff" stroke="#dee2e6" stroke-width="1"/>
  <text x="90" y="415" style="font-size: 12px; fill: #495057;">Fresh Bread Loaves</text>
  <text x="300" y="415" style="font-size: 12px; fill: #495057;">25 loaves</text>
  <text x="450" y="415" style="font-size: 12px; fill: #495057;">Today</text>
  <rect x="550" y="405" width="60" height="20" rx="10" fill="#28a745"/>
  <text x="580" y="417" text-anchor="middle" style="font-size: 10px; fill: white;">Matched</text>
  <text x="680" y="415" style="font-size: 12px; fill: #495057;">City Food Bank</text>

  <rect x="70" y="425" width="750" height="30" fill="#f8f9fa" stroke="#dee2e6" stroke-width="1"/>
  <text x="90" y="445" style="font-size: 12px; fill: #495057;">Organic Vegetables</text>
  <text x="300" y="445" style="font-size: 12px; fill: #495057;">50 lbs</text>
  <text x="450" y="445" style="font-size: 12px; fill: #495057;">Tomorrow</text>
  <rect x="550" y="435" width="60" height="20" rx="10" fill="#ffc107"/>
  <text x="580" y="447" text-anchor="middle" style="font-size: 10px; fill: #212529;">Pending</text>
  <text x="680" y="445" style="font-size: 12px; fill: #6c757d;">-</text>

  <rect x="70" y="455" width="750" height="30" fill="#ffffff" stroke="#dee2e6" stroke-width="1"/>
  <text x="90" y="475" style="font-size: 12px; fill: #495057;">Dairy Products</text>
  <text x="300" y="475" style="font-size: 12px; fill: #495057;">30 items</text>
  <text x="450" y="475" style="font-size: 12px; fill: #495057;">2 days</text>
  <rect x="550" y="465" width="60" height="20" rx="10" fill="#28a745"/>
  <text x="580" y="477" text-anchor="middle" style="font-size: 10px; fill: white;">Matched</text>
  <text x="680" y="475" style="font-size: 12px; fill: #495057;">Community Kitchen</text>

  <!-- Action Button -->
  <rect x="70" y="500" width="150" height="40" rx="20" fill="#007bff"/>
  <text x="145" y="522" text-anchor="middle" style="font-size: 12px; fill: white; font-weight: bold;">+ New Donation</text>

  <!-- Sidebar -->
  <rect x="870" y="100" width="280" height="600" rx="10" fill="url(#cardGrad)" stroke="#dee2e6" stroke-width="1"/>
  <text x="890" y="130" style="font-size: 16px; font-weight: bold; fill: #495057;">Quick Actions</text>

  <rect x="890" y="150" width="240" height="50" rx="8" fill="#e3f2fd" stroke="#2196f3" stroke-width="1"/>
  <text x="950" y="170" text-anchor="middle" style="font-size: 12px; fill: #1976d2;">📊 View Analytics</text>
  <text x="950" y="185" text-anchor="middle" style="font-size: 10px; fill: #1976d2;">Track your impact</text>

  <rect x="890" y="220" width="240" height="50" rx="8" fill="#f3e5f5" stroke="#9c27b0" stroke-width="1"/>
  <text x="950" y="240" text-anchor="middle" style="font-size: 12px; fill: #7b1fa2;">📞 Contact Support</text>
  <text x="950" y="255" text-anchor="middle" style="font-size: 10px; fill: #7b1fa2;">Get help anytime</text>

  <!-- Browser UI Elements -->
  <circle cx="15" cy="15" r="6" fill="#ff0000"/>
  <circle cx="35" cy="15" r="6" fill="#ff9900"/>
  <circle cx="55" cy="15" r="6" fill="#00ff00"/>
  <rect x="70" y="8" width="400" height="14" rx="7" fill="#f8f9fa" stroke="#dee2e6"/>
  <text x="85" y="18" style="font-size: 10px; fill: #6c757d;">https://foodshare.com/dashboard</text>
</svg>
