<svg width="60" height="60" viewBox="0 0 60 60" xmlns="http://www.w3.org/2000/svg">
  <defs>
    <linearGradient id="dockerGradient" x1="0%" y1="0%" x2="100%" y2="100%">
      <stop offset="0%" style="stop-color:#2496ED;stop-opacity:1" />
      <stop offset="100%" style="stop-color:#1E7FBB;stop-opacity:1" />
    </linearGradient>
  </defs>
  <rect width="60" height="60" rx="8" fill="url(#dockerGradient)"/>
  <rect x="8" y="25" width="8" height="6" rx="1" fill="white"/>
  <rect x="18" y="25" width="8" height="6" rx="1" fill="white"/>
  <rect x="28" y="25" width="8" height="6" rx="1" fill="white"/>
  <rect x="38" y="25" width="8" height="6" rx="1" fill="white"/>
  <rect x="48" y="25" width="4" height="6" rx="1" fill="white"/>
  <rect x="18" y="18" width="8" height="6" rx="1" fill="white"/>
  <rect x="28" y="18" width="8" height="6" rx="1" fill="white"/>
  <rect x="38" y="18" width="8" height="6" rx="1" fill="white"/>
  <rect x="28" y="11" width="8" height="6" rx="1" fill="white"/>
  <path d="M8 32 Q30 40 52 32" stroke="white" stroke-width="2" fill="none"/>
  <text x="30" y="50" font-family="Arial, sans-serif" font-size="7" font-weight="bold" text-anchor="middle" fill="white">DOCKER</text>
</svg>
